<svg width="24" height="24" viewBox="0 0 24 24" fill="none" xmlns="http://www.w3.org/2000/svg">
<path d="M9.83007 7.59C10.6471 7.595 11.2671 7.828 11.6721 8.282C12.0551 8.713 12.2391 9.336 12.2191 10.132L12.2051 10.193C12.1971 10.211 12.1851 10.229 12.1701 10.243C12.1401 10.272 12.0991 10.288 12.0571 10.288H10.3981C10.2901 10.288 10.1991 10.2 10.1991 10.093C10.1991 9.669 10.0711 9.435 9.80907 9.383L9.68907 9.372C9.34707 9.372 9.12507 9.583 9.11907 9.951C9.11207 10.361 9.34407 10.734 10.0041 11.374C10.8721 12.19 11.2211 12.913 11.2041 13.867C11.1771 15.411 10.1271 16.41 8.53107 16.41C7.71607 16.41 7.09307 16.191 6.67807 15.761C6.25807 15.324 6.06607 14.683 6.10607 13.855C6.10807 13.813 6.12507 13.772 6.15507 13.743C6.18507 13.714 6.22607 13.698 6.26707 13.698H7.98307C8.00707 13.699 8.03007 13.705 8.05207 13.715C8.07307 13.726 8.09207 13.741 8.10707 13.76C8.12007 13.775 8.12907 13.793 8.13507 13.813C8.14007 13.832 8.14107 13.853 8.13707 13.873C8.11807 14.171 8.17107 14.394 8.28807 14.518C8.36307 14.598 8.46907 14.639 8.59907 14.639C8.91607 14.639 9.10207 14.414 9.10907 14.024C9.11507 13.687 9.00707 13.39 8.42707 12.792C7.67607 12.058 7.00307 11.3 7.02407 10.108C7.03707 9.416 7.31107 8.784 7.79807 8.327C8.31207 7.845 9.01407 7.59 9.83007 7.59ZM4.04707 7.618C4.79407 7.612 5.38107 7.842 5.78907 8.303C6.22107 8.79 6.44007 9.524 6.44107 10.485C6.44007 10.527 6.42207 10.567 6.39207 10.597C6.36207 10.626 6.32207 10.643 6.28007 10.643H4.47907C4.44807 10.642 4.41707 10.629 4.39507 10.607C4.37307 10.584 4.36107 10.553 4.36007 10.522C4.34607 9.899 4.17207 9.576 3.82807 9.538L3.75707 9.534C3.06707 9.535 2.66007 10.472 2.44407 10.992C2.14207 11.719 1.98807 12.507 2.01807 13.293C2.03307 13.659 2.09207 14.173 2.43807 14.386C2.74607 14.575 3.18507 14.45 3.45107 14.24C3.71607 14.031 3.93007 13.669 4.02007 13.339C4.03307 13.293 4.03307 13.258 4.02107 13.241C4.01507 13.233 4.00307 13.229 3.98907 13.226L3.48507 13.222C3.46107 13.222 3.43607 13.216 3.41407 13.206C3.39207 13.196 3.37207 13.181 3.35607 13.162C3.34407 13.148 3.33507 13.13 3.33107 13.112C3.32707 13.093 3.32707 13.074 3.33107 13.056L3.64707 11.682C3.66307 11.611 3.72607 11.558 3.80407 11.548V11.545H6.83907C6.84607 11.545 6.85407 11.545 6.86007 11.546C6.93907 11.556 6.99507 11.63 6.99407 11.71V11.714L6.67807 13.085C6.66107 13.163 6.58307 13.22 6.49407 13.22H6.11307C6.10007 13.22 6.08607 13.225 6.07507 13.233C6.06407 13.241 6.05607 13.253 6.05207 13.266C5.70007 14.46 5.22307 15.282 4.59407 15.775C4.05807 16.195 3.39907 16.391 2.51707 16.391C1.72507 16.391 1.19107 16.136 0.738066 15.633C0.140066 14.967 -0.106934 13.879 0.0430658 12.566C0.313066 10.103 1.58907 7.618 4.04707 7.618ZM21.0161 7.75C23.0261 7.75 24.0301 8.662 23.9991 10.461C23.9621 12.569 22.6781 14.119 20.7451 14.477C20.4701 14.527 20.1911 14.547 19.9121 14.545L18.9781 14.541C18.9631 14.541 18.9481 14.547 18.9371 14.558C18.9261 14.568 18.9201 14.583 18.9201 14.598C18.9201 14.608 18.9221 14.618 18.9281 14.627C18.9331 14.636 18.9411 14.643 18.9501 14.648L19.7441 15.062C19.8091 15.096 19.8351 15.153 19.8201 15.226C19.8151 15.249 19.6181 16.139 19.6131 16.159C19.5961 16.237 19.5331 16.282 19.4421 16.282H17.7391C17.7151 16.282 17.6901 16.277 17.6681 16.267C17.6461 16.257 17.6261 16.241 17.6101 16.223C17.5981 16.208 17.5891 16.191 17.5851 16.173C17.5801 16.155 17.5811 16.135 17.5851 16.116L19.4811 7.875C19.5001 7.789 19.5811 7.751 19.6531 7.751L21.0161 7.75ZM17.2731 7.762C17.2921 7.77 17.3101 7.781 17.3241 7.795C17.3381 7.81 17.3511 7.828 17.3581 7.847C17.3661 7.866 17.3691 7.886 17.3691 7.906L17.3581 16.119C17.3611 16.138 17.3601 16.158 17.3551 16.177C17.3501 16.196 17.3401 16.213 17.3281 16.228C17.3131 16.245 17.2951 16.259 17.2741 16.268C17.2541 16.277 17.2321 16.282 17.2101 16.281H15.3971C15.3771 16.282 15.3561 16.277 15.3371 16.27C15.3181 16.262 15.3001 16.25 15.2861 16.236C15.2721 16.221 15.2601 16.204 15.2531 16.185C15.2451 16.166 15.2411 16.146 15.2411 16.125L15.2801 15.328C15.2821 15.241 15.2801 15.217 15.2291 15.211L15.1611 15.209H13.4471C13.3231 15.209 13.3141 15.22 13.2701 15.334L12.9141 16.191C12.8821 16.252 12.8181 16.281 12.7221 16.281H10.9271C10.8181 16.281 10.7401 16.173 10.7811 16.072L14.4991 7.873C14.5241 7.824 14.5621 7.75 14.6481 7.75H17.2141C17.2341 7.75 17.2541 7.754 17.2731 7.762ZM15.5001 9.985C15.4921 9.953 15.4661 9.956 15.4451 9.998C15.4301 10.028 15.4161 10.06 15.4051 10.091L14.1211 13.274C14.1141 13.294 14.1091 13.31 14.1051 13.322C14.1041 13.328 14.1031 13.335 14.1041 13.341C14.1051 13.347 14.1081 13.353 14.1111 13.358C14.1151 13.363 14.1201 13.367 14.1261 13.37C14.1311 13.373 14.1371 13.376 14.1431 13.376L15.2151 13.39C15.3341 13.38 15.3401 13.374 15.3521 13.253C15.3541 13.21 15.5061 10.022 15.5001 9.985ZM20.1121 9.582C20.0971 9.582 20.0831 9.588 20.0721 9.599C20.0611 9.609 20.0551 9.624 20.0541 9.639C20.0541 9.649 20.0571 9.659 20.0621 9.668C20.0681 9.677 20.0751 9.685 20.0841 9.69C20.0971 9.697 20.8691 10.104 20.9261 10.135C20.9681 10.158 20.9691 10.198 20.9551 10.267C20.9481 10.298 20.4151 12.642 20.4161 12.644C20.4191 12.647 20.4351 12.655 20.5151 12.655H20.5511C21.4461 12.619 21.9341 11.561 21.9521 10.534C21.9611 9.979 21.7721 9.638 21.4291 9.588L21.3581 9.582H20.1121Z" fill="white"/>
</svg>
