<svg width="38" height="38" viewBox="0 0 38 38" fill="none" xmlns="http://www.w3.org/2000/svg">
<path d="M30.4 5.06665H7.6C6.20033 5.06665 5.06667 6.20032 5.06667 7.59998V30.4C5.06667 31.7996 6.20033 32.9333 7.6 32.9333H30.4C31.7997 32.9333 32.9333 31.7996 32.9333 30.4V7.59998C32.9333 6.20032 31.7997 5.06665 30.4 5.06665ZM13.8751 27.8666H10.1384V15.8434H13.8751V27.8666ZM11.9687 14.1246C10.7641 14.1246 9.79007 13.148 9.79007 11.9459C9.79007 10.7438 10.7654 9.76852 11.9687 9.76852C13.1695 9.76852 14.1461 10.7451 14.1461 11.9459C14.1461 13.148 13.1695 14.1246 11.9687 14.1246ZM27.8717 27.8666H24.1376V22.0197C24.1376 20.6251 24.1123 18.8315 22.1958 18.8315C20.2515 18.8315 19.9525 20.3503 19.9525 21.9184V27.8666H16.2184V15.8434H19.8031V17.4863H19.8537C20.3528 16.5414 21.5713 15.5445 23.389 15.5445C27.1725 15.5445 27.8717 18.0348 27.8717 21.2724V27.8666Z" fill="#F5F5F5"/>
</svg>
