<svg width="27" height="27" viewBox="0 0 27 27" fill="none" xmlns="http://www.w3.org/2000/svg">
<path d="M4.5 22.4999C3.88125 22.4999 3.35156 22.2796 2.91094 21.839C2.47031 21.3984 2.25 20.8687 2.25 20.2499V6.74994C2.25 6.13119 2.47031 5.6015 2.91094 5.16088C3.35156 4.72025 3.88125 4.49994 4.5 4.49994H22.5C23.1187 4.49994 23.6484 4.72025 24.0891 5.16088C24.5297 5.6015 24.75 6.13119 24.75 6.74994V20.2499C24.75 20.8687 24.5297 21.3984 24.0891 21.839C23.6484 22.2796 23.1187 22.4999 22.5 22.4999H4.5ZM13.5 14.6249L4.5 8.99994V20.2499H22.5V8.99994L13.5 14.6249ZM13.5 12.3749L22.5 6.74994H4.5L13.5 12.3749ZM4.5 8.99994V6.74994V20.2499V8.99994Z" fill="#F5F5F5"/>
</svg>
